<mxfile host="app.diagrams.net" agent="Mozilla/5.0 (Windows NT 10.0; Win64; x64) AppleWebKit/537.36 (KHTML, like Gecko) Chrome/126.0.0.0 Safari/537.36" version="24.7.4">
  <diagram id="C5RBs43oDa-KdzZeNtuy" name="Page-1">
    <mxGraphModel dx="6434" dy="1431" grid="1" gridSize="10" guides="1" tooltips="1" connect="1" arrows="1" fold="1" page="1" pageScale="1" pageWidth="827" pageHeight="1169" math="0" shadow="0">
      <root>
        <mxCell id="WIyWlLk6GJQsqaUBKTNV-0" />
        <mxCell id="WIyWlLk6GJQsqaUBKTNV-1" parent="WIyWlLk6GJQsqaUBKTNV-0" />
        <mxCell id="qBfWjuKuwWrMRzf4pljD-0" value="&lt;font style=&quot;font-size: 44px;&quot;&gt;클라이언트&lt;/font&gt;" style="swimlane;whiteSpace=wrap;html=1;startSize=80;strokeWidth=10;" vertex="1" parent="WIyWlLk6GJQsqaUBKTNV-1">
          <mxGeometry x="-1500" y="1583.5" width="500" height="553" as="geometry" />
        </mxCell>
        <mxCell id="qBfWjuKuwWrMRzf4pljD-1" value="" style="shape=image;verticalLabelPosition=bottom;labelBackgroundColor=default;verticalAlign=top;aspect=fixed;imageAspect=0;image=https://blog.kakaocdn.net/dn/ryFcF/btsaqPVwr6D/BjYzbKKtlQ4gVwMZEwZ4AK/img.jpg;" vertex="1" parent="qBfWjuKuwWrMRzf4pljD-0">
          <mxGeometry x="140.33" y="120" width="219.34" height="146" as="geometry" />
        </mxCell>
        <mxCell id="qBfWjuKuwWrMRzf4pljD-2" value="" style="shape=image;verticalLabelPosition=bottom;labelBackgroundColor=default;verticalAlign=top;aspect=fixed;imageAspect=0;image=data:image/png,iVBORw0KGgoAAAANSUhEUgAAAyAAAAF3CAIAAADSBrhZAAAACXBIWXMAAAsTAAALEwEAmpwYAAAgAElEQVR4nO3deZBd6Xnf9+d533Pu1nuj0d3Yd8y+csghOeI+3ESR2my5oiUOSxXbieTEUlxJJYqq4igVxxXZTiQ7MhXF5aRsSZYoShQlDSmK+zbkELMvWAaDHb2g9+1u57xP/ji3G42lgQZwAHQD30/1ANMXfc92b/f59bs8r37sS78hAAAAyI+73QcAAABwpyFgAQAA5IyABQAAkDMCFgAAQM4IWAAAADkjYAEAAOSMgAUAAJAzAhYAAEDOCFgAAAA5I2ABAADkjIAFAACQMwIWAABAzghYAAAAOSNgAQAA5IyABQAAkDMCFgAAQM4IWAAAADkjYAEAAOSMgAUAAJAzAhYAAEDOCFgAAAA5I2ABAADkjIAFAACQMwIWAABAzghYAAAAOSNgAQAA5IyABQAAkDMCFgAAQM4IWAAAADkjYAEAAOSMgAUAAJAzAhYAAEDOCFgAAAA5I2ABAADkjIAFAACQMwIWAABAzghYAAAAOSNgAQAA5IyABQAAkDMCFgAAQM4IWAAAADkjYAEAAOSMgAUAAJAzAhYAAEDOCFgAAAA5I2ABAADkjIAFAACQMwIWAABAzghYAAAAOSNgAQAA5IyABQAAkDMCFgAAQM4IWAAAADkjYAEAAOSMgAUAAJAzAhYAAEDOCFgAAAA5I2ABAADkjIAFAACQMwIWAABAzghYAAAAOSNgAQAA5IyABQAAkDMCFgAAQM4IWAAAADkjYAEAAOSMgAUAAJAzAhYAAEDOCFgAAAA5I2ABAADkjIAFAACQMwIWAABAzghYAAAAOSNgAQAA5IyABQAAkDMCFgAAQM4IWAAAADkjYAEAAOSMgAUAAJAzAhYAAEDOCFgAAAA5I2ABAADkjIAFAACQMwIWAABAzghYAAAAOSNgAQAA5IyABQAAkDMCFgAAQM4IWAAAADkjYAEAAOSMgAUAAJAzAhYAAEDOCFgAAAA5I2ABAADkjIAFAACQMwIWAABAzghYAAAAOSNgAQAA5IyABQAAkDMCFgAAQM4IWAAAADkjYAEAAOSMgAUAAJAzAhYAAEDOCFgAAAA5I2ABAADkjIAFAACQMwIWAABAzghYAAAAOSNgAQAA5IyABQAAkDMCFgAAQM4IWAAAADkjYAEAAOSMgAUAAJAzAhYAAEDOCFgAAAA5I2ABAADkjIAFAACQMwIWAABAzghYAAAAOSNgAQAA5IyABQAAkDMCFgAAQM4IWAAAADkjYAEAAOSMgAUAAJAzAhYAAEDOCFgAAAA5I2ABAADkjIAFAACQMwIWAABAzghYAAAAOSNgAQAA5IyABQAAkDMCFgAAQM4IWAAAADkjYAEAAOSMgAUAAJAzAhYAAEDOCFgAAAA5I2ABAADkjIAFAACQMwIWAABAzghYAAAAOSNgAQAA5IyABQAAkDMCFgAAQM4IWAAAADkjYAEAAOQsut0HAORMl/5Yu8xu9xEAAG4qAhbuEFmkSs2CmYmZhdt8QJeloqIqzjl1oipqQtYCgDsQAQvrXhatEgtOdEOxvafY3hGXSz6O1N/mI7tEEtJq2phJqpO1uYnGnIhE6mnQAoA7DwEL615qIVbfX+ra3dH/YM/2PZ2Dg6We7mKl6OK11VVoUkubk425swuTb84MvTp56tT8uYn6XBDTtXWgAIAbRcDCulf08e72gXcN3POegfv6Sp1eVURVVNdaaFGpaLEcFTaVex7t3fHewfu/PXzwm8OvnalONEK61g4WAHAjCFhYx0wsUv9A97ZPbH3bQ7072qJSpG4tNwapSjYOKzK/udzzkS2P9JU7/+rUgYPTZ273oQEA8uT3/sIHb/cxANcp0ujd/ff82LYnHu/b3RaXVFXWSWebqTh1lag4WOrqLrQvJPXh2uTtPigAQG5owcJ6FTm/o23jBzc99EjvjoKPbc3XZlhu6VArcfEdG/c2QnOkNj20MJmuzcmPuDtcrsQJMzCA60TAwvqjooml3VHbhzY/+GDPtoKPZV2lq4sUffz4hj1D1anPHX92Pqm7mzx2LLc2vqXNGPfgdU9Fg4QkhGAhnH9QnDrv3Er97he+l3gbABcgYGH9MbNI3c72/sc37GmPy8HsZoeSm0dFg1lPse1tG3b/4NzhIzPDN3mHloQ0j1Yyy/5T0cj5SJ2ImJgRttYhJ9oIiXO+q9i5t32gu1BSFQuhntbPVadOVqcaZpd+gwUL6flX21Rd9jYAkCFgYZ1RkcRCV1x5pHdHR1wWWYPTBa9Ndvh9xY5He3cfnxtrhOSmnY+Jlh7r2zFQiBshXN91U5PU0kbanEvrs0mtljQm67MTjXkRjX1UdLFTCaSs9UPFFtL0vp69P7X9iUd6t3YXSrF6UTELZrLQmPrNF//4W1PDRRctL4obzHZ2bN3X3ptaaiYFFw3NnX11dkQ0FmrnAiJCwMI6pCZWiYr7OjeVfUHWc+dgJutnaYtL93RtitU3pHkzzklFgyVR1PFTez7yZE93ElJ/fcHUxMSSkDZCUg9JtVk9Oz92emHi6MzZIzMjJxYmaiJFFzmK1K8HKlJL0yc3vfMf3ff+wWJpaSCjiYiqUy3HRe8ubpdSkdTsHYOP/OLut4WQBrHIRT888Y2Dr59u+IKnrxAQEQIW1qNgVnTxYKUndmuuVvtFVj/0vuTjwXK3d84ScXrTssnivU/VZS1YJnJtTQ6qKlJwviCFdhEpdW7tGHiHSBqa49WJl8fe+srZlw9Mn03EF7xfF8Ozlvcvm8ndkwtVtZ40dnXf+yv3Pz1QiIKZqpi1XuKlq7DSG9iyoiPOqS3msSvv7sK2ZnqTcccjYGFdcqoVX3DXMubjmpNEDq6hjSir2nArW+Oya5FNHLvG62Lp4mgrVTUzUfUu7m8beLpt4L2bH3l26IX/cOzZN6uzBbfWO4xMrJ4mS4fo7qKBRCqWOt/2EzvfNVCIggWnzsRUNQ3JTH2uFtJyXIkluUoQag3Gk6sOck8tTUNY+hqv/jrbUIF1goCFdUlbqyZfvYnIRMxCPU3qoZne0t+ZLVJf8nHsIl3dcCen7pZ0eOryv4IFu9wQ5pWfrOqc12UTyDRr9bGs8aMQV967/al7e7b/3ut/8dWJodgXda32GZmEyBW3lNu9aJYt5psL483qOimmdkOcarXZ2NGz9/HeLbI4kFFFT06++ScnD7w2PRpEIl/sjgpn5qcidVds2NNlf15eMCtHlY2FioqZqKpN1Wenk+b6nZ4CXBUBC+vTYnvUVX8815PmgYk3X5s8fa42k1p6y+70KhK7aLDc81DP9sc27PKraRe59THEwvdOfOerE2djjVa5e1WNXVyJS+W4NFju2d0xsKnS0x7FIlnSEhEJZv0d237l4Z+2lz/31YnhYhSvwYil6pK00d9+z3/3wIe6Y5eYxarfOPPd3zv6Q1nzDW83TsWaJvd379hSjMVC1tg6OXfyn770uZfnZ0o+UpFgFsRiF91gq55TrSb1h/vf/sv73lXSZioaif3R4Wf+bOSo1/ju6ZPF3YaAhfXtygFrrln74djRZ848f3j67Fyzdgt7CVVEnGpXXDkxN2pmD/ZsK0fFKz/nFt9nsnh6bOrYF4cOFf1qM1CrN0hMRMq+0B5VNrdtfGf/Ax/e/EBfsShmpupUg4Vyuf/T9z598oU/eaveiK/SBHKbmMW+uKltQ0ek2dXoKVZERPTOz1cmJlra0d4rIqllA9HSZ04+e7A631OoLH+xVhosFV3Y+OTcimOwVDSIlaO2wbauoloQdSIdcXHtpW4gTwQs3JnMTFXP1Wa+fPbF1ydPJ5YUfHTrfqAvdl7OJbUXx48VfbylrbccFU1sbXU/qcQuLvtC0V9Pm00wm2rOTk7OvjJx9C9OHfg7u9/zqa33Zv/k1AWzzV17f3b7I79x6NmwNofbqJiFxIKID2ZeNQ13RSV9FTELxaizu9Ali1E7acy8MTXk1QWzK6dhE3GqhyaO/rk00pCaWMkXDo+/1VR/2e5ga01iTYOJaNaVnKZyV1xq3M0IWLhDqZjZeG3mrdnRRmh69be0ONNiO49TnU8bb84MTdbnN5V71lS4yphYsGzI+vVcn1gjURG1kYXTv/3a56rhx39m+wMqJtKaVPbOLU/sP/nS4Vq94Nyaa7DIhukvNjfK+q+ptnpmFnmfrYKQmW3MjdVrqxwF6FUPnHv9uZFXs0+z+YTeFVae/7r0llCnuv6LqwBXd5fMl8FdJ+uVqFuSSno75g+2ZLtOLdTTZrD1tV7iqpiYiZlJ0RedNH7v4Je+NnpWRJdOtljc8FTf1rA4ygdrh13Y4VsLjXmz1b9DI/WFKM4+4iiOnecFBpYjYOGOpSJe1sLvyqqiTpeVnboTBQuxK6bpxB8d/85IIzhVa/UW6f7unR1OwjXcu3FLtSYBZk15q36HtlZGWnLnvreB60PAAm62rGDU7T6Kmy+1UPKFt6ZOvDR1ZvExE5Ft7X09hWJq4a64CuvXssJoAG4cAQtAXsyprzVnD04NiZxvDikX2ttdMSsUfq1UdNnH0oNy6YPXY4Un55UxLjrOa93szT33WygrZkt0w92GQe4AcmOiXtLh2lTdpLi44Iqqd3qtxeJFVZ1o0ir/bbK8UviyO7Z3PlInYqucxJBtVkRUXVDnLywCq6JenbuwqIStsHF3weIwtryMbdYpnFqahNSWDtzEu1WVL3fqRCwJaWpLFVwXC7meXx9AnbrY+ayQwmpOfumAVdXMXbS4jap6dV69d2759oKFy25cW8PVF8//kqu0tDunzqvzFyYsJ847d9G+VrrUwHpEwAKQJ1VphnT5FPySFnq9D7L6evHqVJqhWU/Tki8NlHu2Vnq7i5WeqFx2kak00vpkc2G2sXBmYWKkNjOX1GMXr3Lpw0baqKWJiqi6RlLtbtaXx4dmaEw35tXHyzcVuai8bLbdIptrLqRmKmpiXn0pKrjWFVCzMNdsFHxxsLxhU7m7q1jujMrdvvDSxBsvz05GuuKESlUVs1pSS0w64sr2cs+mSndXXO6JKwV1ZqFp6WRzfqZZHZkfH6rPTDer6qKyi5zKlaOJilSTWiOkrb2EJPWlZgiy2DeYWjrTWJhqNorOLW1K1ZV94bKhMAnNatrM5jIEkaIvlFy0PJhWk2ojhCyHzTarc0lz+fHV0tp0fb4QxctftNjFJc9dCXcI3soAcnbRfT6V0GgFkavL1sKrpmFLpf+hnp1PbNyzv2NgsNxZ8Bcv7J2kjbHq1PHZsz8cO/byxPGjC5PexVdY1EVFErN9Xfse6x1ILHWiaUi6K9tKy9px9nTt+rk9QZxfOgknbnTu7HcnTi4fUGEWVMtPb31koFhMQvAumpo/9+y5NxfURar1pFGM2t636aF3D+y/v2tTX7G9HMWtRqjXRp+fmYguWEz5gnOvJw3vCvd073mkd8fjG3buaNuwodR+ab4JIZmoTZ+aG3lx/NiLEycOzY40xF2Uby4696bpY30P7O/sCa3BcCFIZWelTRZLVLQXen5y11NTaeIXr6GqazTnvjd6eKJ58Zo2aQj9bVuf7NsWq6UmRaevjh99ZXq02ApMFsw9sfGRfR2dTQtetJYme3p2LLvfuMc2PpjEfZHzdv5Sy7Gp489Pj65q2QNgzSNgAa31Cr3zbtXjRFQkNUstvaYFp+8GZlLx0fI01LDmbEhXtRqjaC1pdhQ6P7nl8Y9teXhnW2+0eHUvbZ7xvjDY3j/Y3v/k4MMjcyNfPX3gC2deGk2S4go5Q8Wapo9ufOTv7X0otXDRXTw7vP299+zvvef8uYioyNHxF78/cSJdrO+uoqmFyLf99K6n7++opCH1zp8aP/jG2JF50XrS3Nm99xf2vOddfTsKi9HNWlsKiYXLXgcVNQv1NN3bvfeT2972zr7dfaXS0nMvPXd1UV9lQ19lw2P9909VJ3448voXTj//6ux47AtusezC8i9XtWbw79/85Ce37Ly02m12KTpLfT+3/8PLzt1UNDTHTs2cHm1MFvX8VVWR1MK2zr2/dN/7nVgSJHL62cNfeG78dDkuppaKWGr+/Vue+tFNm4LZheEs+0Sf3Pz4k5vlot196+RXfjg55L2/bAAF1hcCFiBetS1u21zpaYuKqxuLbCI621w4uzC5kDSYoL6MpRoPlnsK2RB3FRFpJrVaSK66rK9TrSWN7Z07//N7Pvruvs0iEsySEETEO3/p001a/+rUDXZs+tl7f/RtG3f+H69/+cj8dCEqmF1cKNxEVaya1EWkGdJEg4io6PICTqmFdNkTzaTg3FzSvGj1nCwP1dK6SCUx8yK1pBFU60nywIaH/vEDH9/dVglm6WKcMjET9SsNZlINIQ0Sf3j7k7+496mNxaKIBAvBTDQbE3aZZ6WWmomq6yr3Pr3zR97ev//33/zKF84eSjWKnF6YyVrTWOeTamqWhGRp3Fmk5y+siTVDulSrzcycRtW0mVy2b1e1GZoLiVV8SEUi8bU0e4mX9mu1pC5ijZBkI/CcunhZqE0sTZetMm4mBSfV0GQeI+4YBCzc1VQ0tXSg1PPxbY8/3rurLS7bKoYKmYgTN9mYe+7ckb86/cJ0Y/7uqQB+BSpqlpTj9nu7Nks2Jl1VRKarM/NJzam7whApFZlr1h/d+NCvPvCxHZWOrHipqkTqRSRYOlmdGlqYnkkbItoelwfLvd3FSuy8iJhZMFPVe/oe/CePd//WS5//9vRIW1y8qOFHxcw0WxEydv6y/VBe3fLHs7TRGRUWj/HiQdyy2Pzj1SdpY1PH/l998OO7K5VsyqQu1pZqbUpdaVmPWOuoVNM0MVf8T/f/6H+y42Gvsnjumi2x3EybE9XJkdrMfJqoaNEVBirdG8qdReel9cUmKl2V/n/w4E9vK335M2/9YCGNSk6XBUzNXo22qOxVnY8uO6NPRQtu+R3BRDSKivEKJfhV1Dt16rLWyotbzlRLcVFECy66bLaO1EfL5wiIqWjFF2i7wh2DgIW7XeyirW1979p4z/b2vmsqtT5Y7orUPT9+bD6ppZe0l9yFnOpcs/Fw/57HejaJnJ/tdmJuaDIJ/pJscf6JorW08djGh/7bhz65uVRaHACkKjJbm3pu9OBz48eOz0+O1+fm06aIVHxpQ6lzc1vf4xv2PtG3Z7Bc0VZXWuhv3/pfPfypxkufOzA3XfT+whlqGjk7NHX4CydqjbSp6sySSrH/A5v2lVxrsefj0ycOjJ9WbXVRmUnk3NDcqZBt4HKyszRLorjr5/Z/aG+lkq2DmZ18M22MLUwcnR2dShtq4ZXpca9Ozve1aQip86W/e8+P/cz2B9xiaVanImJDc8M/HDl8YPLE2erURH2+GhIRLbq4t9SxsdTzUO/Ot2/ct6djg9NWPX11hR/b97HY+d85+uyCRdH5ZWvMTCINB869EpojaQiiKhZSLb594L6dlUrWizdfn/zm8KH51FoNUSaqLklnR2u15ce8OuokPD/6Ylo/1UhTp9oMzcGOHe/auD3WLDnbK+cOHZwd98sudezcocnTzl3rvoA1ioCFu5zFLuouVLoKFcluRKtLWGbiVLsLbV2File30tiau4dTl4RmKe77yR3v6Ik0NWsNzbbGgXNH66KlFW6bTl0tqe3q3v+PHvzk5lJpsVyWqoQXzj7/7499/7XZcwtp4pxfaguZTubGZqZfmzrxzZFXd7Vv+5k97/ngwB6vIuqCWX/Htl++/2O/9sJnh5JQWFYewkQi1VfGXnl+9CVRUXHNtLqt54kn+/cujXN/Y+Lgb73+DefjVlEIE1Fx4gouWqmNMtt+NU2fGHj8PRu3iLQKSNQbc98fefXro0eOz42P1GbmQ6Im3kUXNgiFhvmf3vXhbAFHExUxFUmS+WeOP/tnZ14+sTBZDyHyUdzqy7P5tDY1N394+syz5w5+/uRzH9rytr+18+29cdxas0j9R/c8Pd+ofub4ixYXdDFgmkis6beHf/j1syYqKiqWJK7319u27axUUgtO/Ux97P89/NenG414KQqbqGrW2neNkUe9hq+fffZvzpiIeHGzzYX3bv/YO/q2x63LGL579sD/d+q1go/Pf9OZeOcLjkGNuEMQsAAzkWBBWquFrC4pqYlIKqusQHRnU6/aSBtNK/zd/R95/8bNIuZVs4ac4cmjP5gej1ZoAlHREJJyYeOn7/nIznIpsRBlJTnT2n848sU/PPHSvEnRxZ2+IHJ+BJNzUexiFQkWjs0e/82Xh17d8f6/v/edFS+iEsy2997z6V1P/O+Hvxv04uWHYxfHPtu1a2po89HyJfRiF7VFRV0KWJkrvsbZG6azPPCJrVsqKkHMiRwce/0zb3z59fmpxExVI+crvtja1uITnWo1ab5j07s+vftxlw1YM1PVuYWR33n9L740dlLEF6JiSdRaR2BZv1zkIvViYpO1iT9886+fnzj93zz0iX2VNhNTM9Pok/s+eHR+/JmxMyUfLbvsWnCFgl88ZvPBFbNh+IvVqnzZF8uRXrQs93W/wwuuUFARES+aWlq5sARY0UeVqFjw0QVb59sJdxB+V8Bdz67/p7pebnbb+nNdjW+6WGrSLMw0FiqFnl+452M/v/OBbI6YiamqNWf/9Pj3x4Ot3ARi9SAf2/7up3r7rdXopSFZ+IPDz/y7Yy/UxZd9pGKphdSs1UgjZmZhcTR60ccqzc+/9ZXfPvzdamoqrc6592x9x7u7+xeSi+sLLK2gJ62tLU9S2frHdskqe1e/eFu6N+/q7A9mTvT5Mz/4n1/605fmp5zzRR8XXDYV0mzZrlRdEho95U0/s+udFZe9i0xV6/Xx33nt8381ejz2haL3YpZaCLZ4qGJZT2j2YOSjko8OTbz2z1555vjCQqsQhlkcd/38nvf0R655YcPq+fPKruEFpy52fi+y6rO/kmW7O7+w9CWX+sJrfd07A9YeAhZwQ9b78PZl99rVfgSzYKEZ0lraqCYN7wrv2/z4rz/6M5/e/Xg2bNlavV3hmePf+PORtwou0hWar5qhOdi+7ae2P5x9bqYi4Usnvvlvj7/gfRyphCvedE0kmDnxZZc+c/zrnz39hiym3rjQ89Etj/a4kKzQ65s1CV268cumgavyqurUqR4Ze+VfHPzK2WZS8ZEsxbVLNqgSaql73+bHH+/qNguqqqJijX938K+eGTtdistqduVzl1YkkraocGTsxd89/M25VNziCjqbevf/6OAes/Ty8XmF0XB2hX+7AdY62IsP4TLXBbiD0EUI3NVscRmaVd9Xs0jp+gudm9t6d3dufsfGffd3byr7KJi1puqpcxL+5q2v/u6x51NXiFa8jVoq/gNbn9hcjE1MTJzKyYnDf3z8gLnYq66yddDE1EUFa3z++Hfe179ne7mY7fCBvr33dRz4/sxkJYpuduNINgmuXh/7t4e+crrZbPdRuvIeVbQZkr7KwPsH75HF+hEieuDM9/9s6GjBF3WFgg6XlZq0x8Vnhw/8Zd/uv7N1f2v6puj7tzz65ZFjw8FiYgxwOxCwgLtU1pf3gV3v2zPwhFv9NDHVYlRsi4qdcaW70Bb7Vit41ieoIqpaa8x87s2v/P6pl+viCirh8lXLXZLWusvb3te/a/ERlVD94snvv1Wvt8ela5qYaWaRiyerZ784dOjv7X5YRVKTtvLGx3u3PjczFm7FDzoVke+cfO752amyj6+QrrLjDWb39uy+t7MrG9Wuoo362J+efKEhrqRyDfFKRMRMvZfaM6eef3pwz4aoNUR9e9f2x7oH/mT0VG9cTJjlCtxyBCzgbqabOrdu6ryhTSyWKVcxCZYcmTjyR8e+++3xU+KiWGSlG7sTqwV7asO+XZX2pQePT775jbGTsS+E6wgEqir2g5HXPrX1/sFCJCGIuod6tm04/epksPiynZS5sSwhfWnkUCq6YjmKpa8WM4me7L8vK/oUxLzoK2OHX52biFx8HY1tZiFy8dDsiecnhj/cv0WynlPf/nDvzi+OHk8uLeEF4OZjDBZwVzPLhpBf20dYHHktIq1RPyZizb8+8Y1ff+Gzz4y8FfnCFZc70WAh8u2P9W6PNRuMoyLhe2dfG24msVvVqoWXnInEqqfmhw9Oj4mIqYnIju6tm0odIawwFCknWVfm0cnjh+ennV51mRcNlpYLfY/2DLQ+VydWPzD21lQSIr2ucxdR0SStfW/0aNqa2Ggisqdry2Cx1AzpaufGAsgPAQu4q6lqVr78mj6cOqearUmXxQtVURf9yOYnfm7Xu3aV2hpXzDSqmoRkQ7l3V8dGWSyY3qhPPDd12tTLdY2XMrHI+bn63LHZUWmV0ZBy1L2r1Ha9oWX1u3Yi4dD06fkQ/NV2pipJsB0d/f2FwtKTp+aGX58ZUbfycLWrU6d2ZOrYuUZz6aHNle7NpfbUAvkKuPXoIgTuZnZu9ty5RvWqCwUuowVfqETFUlyoRMWCW76ss7YVu35874f2tPX+8ze+dKrZLKxQnUHFmsE2Fru3lCpLD56dGz6+MB+pl9ag72ulos7J7Fh9UkScShBxUdzX1q3jZ29qwnIqktZOz40nIpFeJR+qSCraVx4oZsUbRFTk5NzYmYXZ+Lr6B5cdho7XJo/Mzg5u6M3m5xWLXb3FTpmeFH/1pwPIFwELuEuZiIp958S3/v3I0aJb9Tw71VijUlSMfTRQ7r23e9uTG/dvb+tsrbYnYiIPbnr8l9Pq//r6V+ZEVugwM1MdbBvsjL1IyNq6Tk2dnEiTyGvzekNGGrxJOlSbmwvS7pyZiUabS92+1YV5U5iYE60mC6cbNRN31dFOZubV7+vsa1W0UBWRkerYZAiFG4hBJuZU62l1rDYu0iutyZWVfeXOv5ZrHTUPIAcELOCutpBWz9Vni76w+vJHZmYSgslrUye+Pvzyn5187id2/shPbHtocZk5MZG3bX7i6XNv/seho21x8dLoZiZO3GClLZLza0LPNJMt5Z7oBrrJnPpqFLX5eHme2F7ujNU1b+ogLJF6Y5GGQjwAABdrSURBVG6+ubC6omjmNBooFmSx+UosGZ+bSC3oNc8fvICKE2sM1WZExGWhSqW3WPa6uCMAtxABC3e9G7/zrOfmAacudlG88krMl9Lzf1swG10Y+cwbn59s1H5x79uzhVjMTF3xQ1se/cbYiTGz4mXmEpqo74qKImKLQ0E/uv8TH953g9UE1MScutiJiGajoYouvrFtrspcfWGhWXPqrnYVVSSoxgXXGoClKsGSE/X51G50RKyKmNlYrZb1VGZHUixWVNXEWEIZuMUIWIAu1b++Dk51vU+CD4vLp6zy6+3Cv2NfCKHxuWNf39Yx8PGB7SKWDaHa17Prka6BZ8bOFOOSXFx2wUSyUfLn9xo5LzmNFbKlv/QmFCa/3L5qIW2kQWU1OTWoFmItLNuCZbWwcnHRlryPaLwCbgtmEeJuF8RSaS3LlqWMVX0s3sPTVtHt9ZywboxZ8K5QT2b/8tRLzcUJhcFM485HejYXJISLw4OaiNNC2WUj3PO//2chI8vMHaV2pzfxB11rpeTzCf3qp2NyQZw1a9ZDHn2YKiYyV59PwvnDMLmb35vA7UQLFu5y2kiT0erM2YWJzkLFr/pOrKqNkJyaHx+rzySheZfXGQoWCs6fmjl5dL52b3up1XIk2t/WV/FR3cLlGqaWQkZrgNBEdWq2Wb+W+YxXYWaRi8arM7cgYCxbVW+1Kw4t+z8fax5NdyYiUopLbtklvKvfl8BtRcDCXc6C2en5sWdOv3Bqfrw9KpnIKu5K5lQn6nMvT544V50Jdt0djHcOJzrXmHpzdvje9p1L7XuDha5e78+k5i9YisdUNIRGNZ1vfS6i0vzcm19+ZvRYwUU5duqpaBKajRXWe749spUCl1fLUpdXN7OKehctdr2qiBiL5AC3CQELd7VsKNB0c+Fvhl754djRglvVd0Q2762aNGabVVVd3dyxO5yqk9A4W5sREdFWnc+uYqU9Llpau9zXX5RjfcmaE/W52Oe+NrH6NfUCqRNr1ENdpHUFvLhuH7msKv4NnHv2tuwqxNH5Lmxp1Beyhahv9lg0ABchYAHZ0iIy06xe4/OMaHUhnag1gogTydqMokI5jgtWrV7SgqRm6XSzIYtz31TdQKEcOefd9S2UcwU3ULszfybigtWmmrWlz9XFmyudTu0Gk6VJUI23lDtkqf1KpNps2ppqwAPuGgQsoIVf8W/cdGMuzaptioiId8XK5aokqGqQcGZ+rikSLxZ/2tg14ESD3Wi5Al2sxbVWabD0zPyCZDUbTFRdb1t/UTXY9TdhqWhqFkeVvnK2+pA6VZHGoYXpRKR0tfryAHLHLEIAuUnSZmh1dYmIOBcX9fJlqFRssja2kC6VwZLNlf4+J8HsRppbVCSxpBaShiUNSxohSdZaslAxC6fnR9PsEzER2Vbq7Y8LzRs799Sst9i1t71DFudRpvWZ4fo0Da3AbUELFoBcqIgkYSERKy4GLBVXUne5xhONVMbrUyO1aldbaznCvkr/3o7uoempWK+zmLuKJCYbSz0b4mJqIRvoNVGfmUjqa2iap0mkdmp+eDoJvVGrsW9r56Y97RtOTAwX48J1tzWZ6P7uXZuLhdZnoqPVqdGFWZfLFEUA14iABdxkN9Qqsa6opNYItjh/TcSr740uc3fPCiicq06emB/f31bJvtjFnU9u2P296R9eXz+ZiqaWlAsb/osHfuqdPX3zaeJEYw1/eOgLv3/moNfcx85fJxPz6kfnR44vzPZ2dolKahYVex/dsO3bk0M3MOUvxK705Ma9rtXZrSJyfPbs2fp87CvMJQRuPboIgZss7zHba5aK1EKjGlq1LbNcGS7XHpOFjGpj5vWpIZFszJaJyNsG7tseF+ohXMcPJlVJLGxt2/xQz+bIFzrickehHIfasZlz6Rob5e3UWZj7zshb2acqJiLv6Nu3rVhKQriOQ1XVRtocaN/2RO/g0iMSai+NH5sMGunaiJbAXYaAhTtZuO13llZlc1lc8HhN3ehzpiL1pFkLrcaSrKJY0UeXfQ1MtODS58eODtebSy1eA5073j+4N00bcu2114MFs+hHBh/o8hIWV/55Zfzwy3MT/nr7HG8apyLPn3v1TCMrUasmMti95/0bd6UhvfaiaqpmQQsf3vpYX9w6UxUZnjn93MTZUlRcm81Xd/J3AiAiBCzc0VRlafbU7fl5nt0r7XxBhzV1m8+Ziiyk6VySLHvI9cSly/b4BQtFXzw9e+K5yaHWQ2ai8Ue3PflQW8dC2lx9VX0Rcar1tLm9+56PbNor2QuvTkLtO6NvTiZptOrKD1kOvtnvFROJnT8xc+bZc8el1aNnotGndj+1vViop+k1lbOPVOeatQc3PvRjm++VxVwrIt8ffvlkvV50uhbj1Z39nQCICAELdyozc6ptUbHsi07UpLWc7i3+MBMnUvHFii/d1BXx1gJVraWNarMhS7dP1SiOV65/4TRUnzl5YC41FVXVYLaxc+d/ee+Ht8dRNaSrzFheXT2t95QH/+F9H9oQexPLLvub44efHTse+8KK8eqSGBOpc7eicJaperWFL51+YajROk0T6Wrb/o/ve3og0moaVn/uC0lte9feX9r/ge5Iw2JAnJw7/qdnDorza7U8g8biLrn8wB3lDv+Jj7uXioj0lboe7d3ZWaiISDC79R8i1lfqfGzDrt5i222+IDefijST+kKyvF6rayt1Ob18jTETi110ZPKNLw2/JSLBzKmayH0Dj/3q/R/ZGrm5pCaqV5gAmBXRn21Wu4r9v3T/J97WvSHbkVMNydyfn/jBqUaz4HTFnmKTZYX4TUS6XbmYLeVz3VdhdYJZ0RfenDz8+ZMvyWLSM5EHN739v77nA5u8zSUNlaucu4jNNasDbVt+5cFP3NPRaWKqIqKSLHz2zW+dajYidWshXqmIXHwubkNUIGHhzsYsQtyZsp/mG0udn9z+hFf3wvixicac3drf5p26/lLX2zfu/fjWx7oKlaWjulOpaBJq82kWsLKpbNoXd5ZMmiv0u6lzLjQ/e/TrD3T23dvRlZply9o8suntvxaX/58j3zowNWTqvHqfJS1d2rYFC0maOo3f0f/Iz+55z2M9A4trwoiIfO3Ed/5m7FQxKl7hRVfVhWatEVKRyExUpbtYjpymwbzLRoZbELPF4qW5MhONpfmXJ759X/fm9/UNSuvg9cmt7/61Qvu/OfKt12fHTJ1X9a3FCltls0xCMEvSVF302MZHf3H/+x7s6sv+MTXxKl879b0/H34zdoU1Ul40O4aFpJYEKXo1M1XdUG5PQvBOVLMAbnazLjVwexCwsD6dv91cKbPEzu/uGPzbu9797oF7pxvzwcItu9+oSOSinkL75kpPf7lrVU9ZzzeWbFXHZmieq9cke1FURGRTsb3i/ZSZ6mV66rJ6DcNzJ/6vQ1//Hx76xGAxSi14dcFsf9+Dv96x9TtnX/7r4TeOzI7Op4mIiJqZqKioFn3h/p69H9j06Ac27e+IWktEZ09/a/y13zv2w6ZG8RUShplT10hmq6EpEmXXflv3zid7N39h9KSZt9bYOY1u1nKT5n1cbU585o1nNj7yU/d3dqUWnKqp3j/w6D/p2Pr1oVe+OfzGkbnxWkhscXSYmopKyZce6Nn+gU2PvmdwX3ccBzNVCSZe9dWhA7979NmqRsXFEvlrgYpVk9mmpSI+u5T39N33aPuLB+ZmYnVZGHeq3tGpgjsHAQvrk4nqVdJVRlU3VXoGy92phWDh1jUhmTp1kWsNr1nVbtfM7fC6mFNtJM0z89Oy7Hy7Ovp7C8WJWn2l/BjMylHhlXMv/i+v6H//0Me3FOMs15hYe7H7o7ve+4Ftbz85O/rW9NBbc+cmk1pTpDNq29MxuLtr056O/pL3trjMUTDx6k5OHv7nr/zVuSQUvLtC85WJqPp6Mj1Uq24vlbNiCXGh+x88+LceHX79lZnRuoXeuGtvz7ZymP29g186nlhJJd8B42ZWcPHo/PF/+vLnfuWhTz3etSE7YFPrqfT95J4P/Oi2J4/NDR+bGT4xNzae1sW0K27f3TG4q3PTro6+kvfSmkIhZuJVXzx74F+8/qXRJC15f9kCGbeFicROJ+tTY416d1TJ3hzdbVv+x7f9/LeGDx6ZGzdxfaWefd1bGwun//WRb8yKX2vTPoHrQMDCuhREmiGIXX0VkKWa4l69v6WDDlsdH6vs8jCxRkhuwW2ldQvPumNy7TQ1cbE2z1VH50zas+YTFR93P9m96dDQm6LFlZqTTKTs3WvnXvjfXm7+8r0fvKejJwtMWWtVISrv7dmxt2fHCs9t9UWqiNfw4vALnzn8jcPV+VIUXy1hmIrW0upzYyee7O5derS91PP0zqeeXty4is7Ony3rZQdynT/I637hTKzoC2dnj/2zlz73n+374Mc27Wn1gpqJarFQubd39729u6947qKiIdS+cur7//fR755LkuKq09Xim+E6jz3bSdaxtzR78bJfF7vC2MLYy5PDeyvnz6W3bfDH9wwunYuKnj5X9yQr3Cloj8X6oyKppTPNhWTVBX6ylJONGr5VH7Js0NDVJSHMJAvZXfzm3WFUNZvM2BpArT7Kr/MriJR8dHLu3JmFhcWfLSbiPrXnvQ+3dV+5+oCJVrx/9dyL/9ML//ELZw5V05DNK1RRE0stZB/BQlj8/9TCYrpQFZmrTf7Bwb/8jZf/8uD8zCrSVUbV0m8PPf/WQlVFRbKpCa0dpRayjSQhvcxaP6J+2RI0kfOLHdbXfD2DWSkqjs+f/q1XPvt/vvHNkwuz2aEtVmq90rlnnZfDs2f+zat/9psHvzqeJEXvVxmbVZbeDCIi3l3LDEoTpz5y2ZGKiMTOyWIR/8t8tboQ5p85fWA6yYaarXCpb2EnPnCz0YKF9UdV62lyZmGiv9xVWP/v4eymVEsaZ+Yn0hBu5kgsNUtOzw/3R3MLaepEvdhoo+ZyqvRtFryLJ6ojXx162fXvSEMqIkGk4uP7eja/PPf6lXt+gkglLo1XR3771T/+4qmdH9r04Ns27NhU6So451e+KEnaODs3+sK5Q18889KbCzPeR5UoWm37jVjsovH5M//y1T//+/c8/WDXBl0aO9b6AhGRetJIly3DvNi61jw+O1SR2XqaFKLiydmxZGm49rULZsWoEKzxhRNf++7IS0/13//UwP49HRu74ytU97D5xvzxmTPfHXnja8MHR5u12BUKevnS+ZejZsnZ+ZGTxeZs0iz4wtj8WKPVJHz1LajKbHP6jamzJRcSkw6vI9U571bMdmZW9IVjk6//y9ee+fS+9+6otIuaXvIbfiNtrBjSgPVGP/al37jdxwBcm2BW8YWntzz8t3e+u7/cZbdiWv1N1OocmR/7g7e+/Y3h19ObXHfbiS5NDshGL2W9UXltP9ualwtv1CrLM8oVqGoIIbE0mPaXe/Z3btnfObitrbctKrT5YqxiIs3QnE0btaR2enb4zdmRQ9NDo80FERe76DrmzalILW1sKPc/1X/fIz2bugvlNhcFCwtpY6I2dWT67Juzw0dmRhsX9UabuGVhxM73FV6/rBUtCWlioejLuzsG9nUO7ukY7ClW2qJiWZ2IJJbOpfX5+tzR2aHD02ePzI7OpknkfKT+Wgt4mYgTdcveDGHlNqhLnmsquvy9FMTC1Z6rIrU02dqx5X0D9+3r6OuOSyXnQwgzaXV8YfLgzNm3ZoaOzk/aup7uASwiYGH9UZHUbE/H4D+8/+P3dW2x890p61LW5nFg7Oi/euOZoYWpa6rifafKEnNizYWkGWlU9FHJxRUfR+qCSBqac6HZDEk9aSYi5agY6w3VB3WqjbRRT9NyVGzzxbL3ZraQ1OdDs5Y0nY/KPr5lr4q2hnSFWtpoBiv6OHa+7AsldSqaWLKQNhshqaVNdVHZx65V0XZ9cKq1pN40qUTFdl8oOhcszCf1hbRZC0nk4rJf923SQIa3MtYjFbHR2tRXzr7SVahsrvSu316FrCbQW7MjXxt6bbI+T7jKZKEzcnF3oZCN16mF5kJoLL3QXtWpbyvEmq1CeGOdnMEs9oWi19TCfFqbTUVEnGjk4q5iQcTSWxhgFs9FK1E5O7sgtpDU5rJHRZw67+JOX8haH2/w3G+xbMBZSSRYmEmq2aF7dQVfKEXF7LW+zYcI5ISAhfXHxJzqQtL47ujBTZXu9w0+0FfqXI8dhSYmKiMLU98efuMHY0eSkK67U7ipzCxtLV2sXtUv1Rlt3YIt5Nedmu0rG7qeFcXKJtjdymh1kezsVMSJE5VlR3WbD+wGLa7n4yIV1TvhjIDL8nt/4YO3+xiA62EitbQ5WZ9X1YFSVyUqrcN2LB2uTn357EvfGHl9rD5zuw9mHbBbUh7p1uzlWq3No7pBd94ZAUtowcJ6lWWpIzNDiQQReUffvk2Vnti1Zs6v2X6TpTaqZkhPzY99Z+Tg35x95fT8eNFHa/SIAQDXjoCF9S320am5c587/uyh6bPv6r9nR3tfd6GtEhWLLl6Do8XTEOqhMZ/UJ+tzx+ZGnzt35KWJE/NprejjNZsIAQDXgYCF9S1bo22yMfedkTdemThxb/eW/V2bt1Q29BbbSq6wtroMzRbSxkR97tT8+MGp04emz1bTemiNMQIA3FEIWFj3sk63IDbTXHhx/Njrk6diF3l1a7B2g5mlFhohaYRmI6S2iqV+AADrEQELdwgVNZFq2lzIikGvycpAWZhSzdKfkq4A4E5FwMIdxevSrPY1anGtwbWY/wAAeSFg4Y5i2R+MGAcA3FYrLSMKAACA60TAAgAAyBkBCwAAIGcELAAAgJwRsAAAAHJGwAIAAMgZAQsAACBnBCwAAICcEbAAAAByRsACAADIGQELAAAgZwQsAACAnBGwAAAAckbAAgAAyBkBCwAAIGcELAAAgJwRsAAAAHJGwAIAAMgZAQsAACBnBCwAAICcEbAAAAByRsACAADIGQELAAAgZwQsAACAnBGwAAAAckbAAgAAyBkBCwAAIGcELAAAgJwRsAAAAHJGwAIAAMgZAQsAACBnBCwAAICcEbAAAAByRsACAADIGQELAAAgZwQsAACAnBGwAAAAckbAAgAAyBkBCwAAIGcELAAAgJwRsAAAAHJGwAIAAMgZAQsAACBnBCwAAICcEbAAAAByRsACAADIGQELAAAgZwQsAACAnBGwAAAAckbAAgAAyBkBCwAAIGcELAAAgJwRsAAAAHJGwAIAAMgZAQsAACBnBCwAAICcEbAAAAByRsACAADIGQELAAAgZwQsAACAnBGwAAAAckbAAgAAyBkBCwAAIGcELAAAgJwRsAAAAHJGwAIAAMgZAQsAACBnBCwAAICcEbAAAAByRsACAADIGQELAAAgZwQsAACAnBGwAAAAckbAAgAAyBkBCwAAIGcELAAAgJwRsAAAAHJGwAIAAMgZAQsAACBnBCwAAICcEbAAAAByRsACAADIGQELAAAgZwQsAACAnBGwAAAAckbAAgAAyBkBCwAAIGcELAAAgJwRsAAAAHJGwAIAAMgZAQsAACBnBCwAAICcEbAAAAByRsACAADIGQELAAAgZwQsAACAnBGwAAAAckbAAgAAyBkBCwAAIGcELAAAgJwRsAAAAHJGwAIAAMgZAQsAACBnBCwAAICcEbAAAAByRsACAADIGQELAAAgZwQsAACAnBGwAAAAckbAAgAAyBkBCwAAIGcELAAAgJwRsAAAAHJGwAIAAMgZAQsAACBnBCwAAICcEbAAAAByRsACAADIGQELAAAgZwQsAACAnBGwAAAAckbAAgAAyBkBCwAAIGcELAAAgJwRsAAAAHJGwAIAAMgZAQsAACBnBCwAAICcEbAAAAByRsACAADIGQELAAAgZwQsAACAnBGwAAAAckbAAgAAyBkBCwAAIGcELAAAgJwRsAAAAHJGwAIAAMgZAQsAACBnBCwAAICcEbAAAAByRsACAADIGQELAAAgZwQsAACAnBGwAAAAckbAAgAAyBkBCwAAIGcELAAAgJz9/93ebUTgXFmYAAAAAElFTkSuQmCC;" vertex="1" parent="qBfWjuKuwWrMRzf4pljD-0">
          <mxGeometry x="52.67" y="300" width="394.67" height="185" as="geometry" />
        </mxCell>
        <mxCell id="qBfWjuKuwWrMRzf4pljD-3" value="&lt;font style=&quot;font-size: 44px;&quot;&gt;서버&lt;/font&gt;" style="swimlane;whiteSpace=wrap;html=1;startSize=100;strokeWidth=10;" vertex="1" parent="WIyWlLk6GJQsqaUBKTNV-1">
          <mxGeometry x="-660" y="1540" width="610" height="640" as="geometry" />
        </mxCell>
        <mxCell id="qBfWjuKuwWrMRzf4pljD-4" value="" style="shape=image;verticalLabelPosition=bottom;labelBackgroundColor=default;verticalAlign=top;aspect=fixed;imageAspect=0;image=https://velog.velcdn.com/images/linger0310/post/4476b077-5c7e-4ac9-af2e-756363b14294/%EC%8A%A4%ED%94%84%EB%A7%81.png;" vertex="1" parent="qBfWjuKuwWrMRzf4pljD-3">
          <mxGeometry x="166.9" y="130" width="276.19" height="145" as="geometry" />
        </mxCell>
        <mxCell id="qBfWjuKuwWrMRzf4pljD-5" value="" style="shape=image;verticalLabelPosition=bottom;labelBackgroundColor=default;verticalAlign=top;aspect=fixed;imageAspect=0;image=https://upload.wikimedia.org/wikipedia/commons/f/fe/Apache_Tomcat_logo.svg;" vertex="1" parent="qBfWjuKuwWrMRzf4pljD-3">
          <mxGeometry x="29.999999999999943" y="320" width="202.08" height="144" as="geometry" />
        </mxCell>
        <mxCell id="qBfWjuKuwWrMRzf4pljD-6" value="" style="shape=image;verticalLabelPosition=bottom;labelBackgroundColor=default;verticalAlign=top;aspect=fixed;imageAspect=0;image=https://images.velog.io/images/hanblueblue/post/3f9bafa6-7426-4118-af83-94e597516200/spring-data-mongodb.png;" vertex="1" parent="qBfWjuKuwWrMRzf4pljD-3">
          <mxGeometry x="190" y="263" width="458.95" height="258" as="geometry" />
        </mxCell>
        <mxCell id="qBfWjuKuwWrMRzf4pljD-7" value="&lt;span style=&quot;font-size: 44px;&quot;&gt;서버&lt;/span&gt;" style="swimlane;whiteSpace=wrap;html=1;startSize=80;strokeWidth=10;" vertex="1" parent="WIyWlLk6GJQsqaUBKTNV-1">
          <mxGeometry x="310" y="1590" width="510" height="540" as="geometry" />
        </mxCell>
        <mxCell id="qBfWjuKuwWrMRzf4pljD-8" value="" style="shape=image;verticalLabelPosition=bottom;labelBackgroundColor=default;verticalAlign=top;aspect=fixed;imageAspect=0;image=https://velog.velcdn.com/images/gmlstjq123/post/ffa9090f-0121-4bb5-a59c-14f50fc94fff/image.png;" vertex="1" parent="qBfWjuKuwWrMRzf4pljD-7">
          <mxGeometry x="86.56000000000002" y="110" width="336.89" height="189.5" as="geometry" />
        </mxCell>
        <mxCell id="qBfWjuKuwWrMRzf4pljD-9" value="" style="shape=image;verticalLabelPosition=bottom;labelBackgroundColor=default;verticalAlign=top;aspect=fixed;imageAspect=0;image=https://hongong.hanbit.co.kr/wp-content/uploads/2021/08/TensorFlow.png;" vertex="1" parent="qBfWjuKuwWrMRzf4pljD-7">
          <mxGeometry x="37.73" y="340" width="434.55" height="130" as="geometry" />
        </mxCell>
        <mxCell id="qBfWjuKuwWrMRzf4pljD-12" value="&lt;font style=&quot;font-size: 44px;&quot;&gt;데이터 베이스&lt;/font&gt;" style="swimlane;whiteSpace=wrap;html=1;startSize=80;strokeWidth=10;" vertex="1" parent="WIyWlLk6GJQsqaUBKTNV-1">
          <mxGeometry x="-630" y="2510" width="550" height="500" as="geometry" />
        </mxCell>
        <mxCell id="qBfWjuKuwWrMRzf4pljD-13" value="" style="shape=image;verticalLabelPosition=bottom;labelBackgroundColor=default;verticalAlign=top;aspect=fixed;imageAspect=0;image=https://www.ovhcloud.com/sites/default/files/styles/text_media_horizontal/public/2022-03/black.png;" vertex="1" parent="qBfWjuKuwWrMRzf4pljD-12">
          <mxGeometry x="4.980000000000068" y="175.5" width="540.04" height="149" as="geometry" />
        </mxCell>
        <mxCell id="qBfWjuKuwWrMRzf4pljD-14" value="" style="endArrow=classic;html=1;rounded=0;strokeWidth=9;strokeColor=#FF0000;" edge="1" parent="WIyWlLk6GJQsqaUBKTNV-1">
          <mxGeometry width="50" height="50" relative="1" as="geometry">
            <mxPoint x="-995.1800000000001" y="1830" as="sourcePoint" />
            <mxPoint x="-660" y="1831" as="targetPoint" />
          </mxGeometry>
        </mxCell>
        <mxCell id="qBfWjuKuwWrMRzf4pljD-15" value="Post 요청" style="text;html=1;align=center;verticalAlign=middle;whiteSpace=wrap;rounded=0;fontSize=44;fontStyle=1" vertex="1" parent="WIyWlLk6GJQsqaUBKTNV-1">
          <mxGeometry x="-925" y="1780" width="200" height="30" as="geometry" />
        </mxCell>
        <mxCell id="qBfWjuKuwWrMRzf4pljD-16" value="" style="endArrow=classic;html=1;rounded=0;strokeWidth=9;strokeColor=#FF0000;" edge="1" parent="WIyWlLk6GJQsqaUBKTNV-1">
          <mxGeometry width="50" height="50" relative="1" as="geometry">
            <mxPoint x="-660" y="1900" as="sourcePoint" />
            <mxPoint x="-1000" y="1900.0700000000002" as="targetPoint" />
          </mxGeometry>
        </mxCell>
        <mxCell id="qBfWjuKuwWrMRzf4pljD-17" value="치매 조기 진단&amp;nbsp;&lt;div&gt;결과 제공&lt;/div&gt;" style="text;html=1;align=center;verticalAlign=middle;whiteSpace=wrap;rounded=0;fontSize=44;fontStyle=1" vertex="1" parent="WIyWlLk6GJQsqaUBKTNV-1">
          <mxGeometry x="-1030" y="1970" width="410" height="30" as="geometry" />
        </mxCell>
        <mxCell id="qBfWjuKuwWrMRzf4pljD-19" value="음성 데이터 요청" style="text;html=1;align=center;verticalAlign=middle;whiteSpace=wrap;rounded=0;fontSize=44;fontStyle=1" vertex="1" parent="WIyWlLk6GJQsqaUBKTNV-1">
          <mxGeometry x="-42.75" y="1760" width="334.5" height="30" as="geometry" />
        </mxCell>
        <mxCell id="qBfWjuKuwWrMRzf4pljD-21" value="딥러닝 모델&lt;div&gt;&amp;nbsp;결과 반환&lt;/div&gt;" style="text;html=1;align=center;verticalAlign=middle;whiteSpace=wrap;rounded=0;fontSize=44;fontStyle=1" vertex="1" parent="WIyWlLk6GJQsqaUBKTNV-1">
          <mxGeometry x="-61" y="1990" width="371" height="30" as="geometry" />
        </mxCell>
        <mxCell id="qBfWjuKuwWrMRzf4pljD-22" value="" style="endArrow=classic;html=1;rounded=0;strokeWidth=9;strokeColor=#FF0000;" edge="1" parent="WIyWlLk6GJQsqaUBKTNV-1">
          <mxGeometry width="50" height="50" relative="1" as="geometry">
            <mxPoint x="-40.000000000000114" y="1840" as="sourcePoint" />
            <mxPoint x="295.17999999999995" y="1841" as="targetPoint" />
          </mxGeometry>
        </mxCell>
        <mxCell id="qBfWjuKuwWrMRzf4pljD-23" value="" style="endArrow=classic;html=1;rounded=0;strokeWidth=9;strokeColor=#FF0000;" edge="1" parent="WIyWlLk6GJQsqaUBKTNV-1">
          <mxGeometry width="50" height="50" relative="1" as="geometry">
            <mxPoint x="290" y="1910" as="sourcePoint" />
            <mxPoint x="-50" y="1910.0700000000002" as="targetPoint" />
          </mxGeometry>
        </mxCell>
        <mxCell id="qBfWjuKuwWrMRzf4pljD-24" value="" style="endArrow=classic;html=1;rounded=0;strokeWidth=9;strokeColor=#FF0000;" edge="1" parent="WIyWlLk6GJQsqaUBKTNV-1">
          <mxGeometry width="50" height="50" relative="1" as="geometry">
            <mxPoint x="-380" y="2190" as="sourcePoint" />
            <mxPoint x="-380" y="2500" as="targetPoint" />
          </mxGeometry>
        </mxCell>
        <mxCell id="qBfWjuKuwWrMRzf4pljD-25" value="" style="endArrow=classic;html=1;rounded=0;strokeWidth=9;strokeColor=#FF0000;" edge="1" parent="WIyWlLk6GJQsqaUBKTNV-1">
          <mxGeometry width="50" height="50" relative="1" as="geometry">
            <mxPoint x="-300" y="2500" as="sourcePoint" />
            <mxPoint x="-300" y="2190" as="targetPoint" />
          </mxGeometry>
        </mxCell>
        <mxCell id="qBfWjuKuwWrMRzf4pljD-26" value="데이터 베이스 저장" style="text;html=1;align=center;verticalAlign=middle;whiteSpace=wrap;rounded=0;fontSize=44;fontStyle=1" vertex="1" parent="WIyWlLk6GJQsqaUBKTNV-1">
          <mxGeometry x="-788" y="2320" width="378.76" height="30" as="geometry" />
        </mxCell>
        <mxCell id="qBfWjuKuwWrMRzf4pljD-27" value="결과 반환" style="text;html=1;align=center;verticalAlign=middle;whiteSpace=wrap;rounded=0;fontSize=44;fontStyle=1" vertex="1" parent="WIyWlLk6GJQsqaUBKTNV-1">
          <mxGeometry x="-310" y="2320" width="337.52" height="30" as="geometry" />
        </mxCell>
      </root>
    </mxGraphModel>
  </diagram>
</mxfile>
